<mxfile host="Electron" modified="2024-06-08T15:10:21.382Z" agent="Mozilla/5.0 (Windows NT 10.0; Win64; x64) AppleWebKit/537.36 (KHTML, like Gecko) draw.io/24.4.8 Chrome/124.0.6367.207 Electron/30.0.6 Safari/537.36" etag="ZOdlWX1NI1Ll3SeTUFOv" version="24.4.8" type="device">
  <diagram name="Сторінка-1" id="-AEde9wlTPj9dpkZKv7z">
    <mxGraphModel dx="1619" dy="1187" grid="0" gridSize="10" guides="1" tooltips="1" connect="1" arrows="1" fold="1" page="1" pageScale="1" pageWidth="827" pageHeight="1169" math="0" shadow="0">
      <root>
        <mxCell id="0" />
        <mxCell id="1" parent="0" />
        <mxCell id="UveYAfGSZ513BkrasJNk-8" style="rounded=0;orthogonalLoop=1;jettySize=auto;html=1;exitX=1;exitY=0;exitDx=0;exitDy=0;entryX=0;entryY=0.5;entryDx=0;entryDy=0;" edge="1" parent="1" source="UveYAfGSZ513BkrasJNk-1" target="UveYAfGSZ513BkrasJNk-2">
          <mxGeometry relative="1" as="geometry" />
        </mxCell>
        <mxCell id="UveYAfGSZ513BkrasJNk-1" value="Ласт" style="shape=process;whiteSpace=wrap;html=1;backgroundOutline=1;" vertex="1" parent="1">
          <mxGeometry x="-800" y="490" width="120" height="60" as="geometry" />
        </mxCell>
        <mxCell id="UveYAfGSZ513BkrasJNk-2" value="Форум" style="shape=process;whiteSpace=wrap;html=1;backgroundOutline=1;" vertex="1" parent="1">
          <mxGeometry x="-490" y="340" width="120" height="60" as="geometry" />
        </mxCell>
        <mxCell id="UveYAfGSZ513BkrasJNk-3" value="Інформація про події" style="shape=process;whiteSpace=wrap;html=1;backgroundOutline=1;" vertex="1" parent="1">
          <mxGeometry x="-490" y="440" width="120" height="60" as="geometry" />
        </mxCell>
        <mxCell id="UveYAfGSZ513BkrasJNk-4" value="Дані користувачів" style="shape=process;whiteSpace=wrap;html=1;backgroundOutline=1;" vertex="1" parent="1">
          <mxGeometry x="-490" y="540" width="120" height="60" as="geometry" />
        </mxCell>
        <mxCell id="UveYAfGSZ513BkrasJNk-6" value="Фінанси" style="shape=process;whiteSpace=wrap;html=1;backgroundOutline=1;" vertex="1" parent="1">
          <mxGeometry x="-490" y="640" width="120" height="60" as="geometry" />
        </mxCell>
        <mxCell id="UveYAfGSZ513BkrasJNk-7" value="" style="shape=cylinder3;whiteSpace=wrap;html=1;boundedLbl=1;backgroundOutline=1;size=15;" vertex="1" parent="1">
          <mxGeometry x="-190" y="450" width="90" height="115" as="geometry" />
        </mxCell>
        <mxCell id="UveYAfGSZ513BkrasJNk-9" style="rounded=0;orthogonalLoop=1;jettySize=auto;html=1;exitX=1;exitY=0.25;exitDx=0;exitDy=0;entryX=0;entryY=0.5;entryDx=0;entryDy=0;" edge="1" parent="1" source="UveYAfGSZ513BkrasJNk-1" target="UveYAfGSZ513BkrasJNk-3">
          <mxGeometry relative="1" as="geometry">
            <mxPoint x="-670" y="580" as="sourcePoint" />
            <mxPoint x="-500" y="410" as="targetPoint" />
          </mxGeometry>
        </mxCell>
        <mxCell id="UveYAfGSZ513BkrasJNk-10" style="rounded=0;orthogonalLoop=1;jettySize=auto;html=1;exitX=1;exitY=0.5;exitDx=0;exitDy=0;entryX=0;entryY=0.5;entryDx=0;entryDy=0;" edge="1" parent="1" source="UveYAfGSZ513BkrasJNk-1" target="UveYAfGSZ513BkrasJNk-4">
          <mxGeometry relative="1" as="geometry">
            <mxPoint x="-610" y="940" as="sourcePoint" />
            <mxPoint x="-440" y="770" as="targetPoint" />
          </mxGeometry>
        </mxCell>
        <mxCell id="UveYAfGSZ513BkrasJNk-11" style="rounded=0;orthogonalLoop=1;jettySize=auto;html=1;exitX=1;exitY=0.75;exitDx=0;exitDy=0;entryX=0;entryY=0.5;entryDx=0;entryDy=0;" edge="1" parent="1" source="UveYAfGSZ513BkrasJNk-1" target="UveYAfGSZ513BkrasJNk-6">
          <mxGeometry relative="1" as="geometry">
            <mxPoint x="-600" y="950" as="sourcePoint" />
            <mxPoint x="-430" y="780" as="targetPoint" />
          </mxGeometry>
        </mxCell>
        <mxCell id="UveYAfGSZ513BkrasJNk-12" style="rounded=0;orthogonalLoop=1;jettySize=auto;html=1;exitX=1;exitY=0.5;exitDx=0;exitDy=0;entryX=0;entryY=0;entryDx=0;entryDy=27.5;entryPerimeter=0;" edge="1" parent="1" source="UveYAfGSZ513BkrasJNk-2" target="UveYAfGSZ513BkrasJNk-7">
          <mxGeometry relative="1" as="geometry">
            <mxPoint x="-250" y="480" as="sourcePoint" />
            <mxPoint x="-80" y="310" as="targetPoint" />
          </mxGeometry>
        </mxCell>
        <mxCell id="UveYAfGSZ513BkrasJNk-13" style="rounded=0;orthogonalLoop=1;jettySize=auto;html=1;exitX=1;exitY=0.5;exitDx=0;exitDy=0;entryX=0;entryY=0.5;entryDx=0;entryDy=0;entryPerimeter=0;" edge="1" parent="1" source="UveYAfGSZ513BkrasJNk-3" target="UveYAfGSZ513BkrasJNk-7">
          <mxGeometry relative="1" as="geometry">
            <mxPoint x="-380" y="472" as="sourcePoint" />
            <mxPoint x="-190" y="570" as="targetPoint" />
          </mxGeometry>
        </mxCell>
        <mxCell id="UveYAfGSZ513BkrasJNk-14" style="rounded=0;orthogonalLoop=1;jettySize=auto;html=1;exitX=1;exitY=0.5;exitDx=0;exitDy=0;entryX=0;entryY=0;entryDx=0;entryDy=78.75;entryPerimeter=0;" edge="1" parent="1" source="UveYAfGSZ513BkrasJNk-4" target="UveYAfGSZ513BkrasJNk-7">
          <mxGeometry relative="1" as="geometry">
            <mxPoint x="-370" y="420" as="sourcePoint" />
            <mxPoint x="-180" y="518" as="targetPoint" />
          </mxGeometry>
        </mxCell>
        <mxCell id="UveYAfGSZ513BkrasJNk-15" style="rounded=0;orthogonalLoop=1;jettySize=auto;html=1;exitX=1;exitY=0.533;exitDx=0;exitDy=0;entryX=0;entryY=1;entryDx=0;entryDy=-15;entryPerimeter=0;exitPerimeter=0;" edge="1" parent="1" source="UveYAfGSZ513BkrasJNk-6" target="UveYAfGSZ513BkrasJNk-7">
          <mxGeometry relative="1" as="geometry">
            <mxPoint x="-380" y="672" as="sourcePoint" />
            <mxPoint x="-180" y="650" as="targetPoint" />
          </mxGeometry>
        </mxCell>
        <mxCell id="UveYAfGSZ513BkrasJNk-16" value="Data Base" style="text;html=1;align=center;verticalAlign=middle;resizable=0;points=[];autosize=1;strokeColor=none;fillColor=none;" vertex="1" parent="1">
          <mxGeometry x="-190" y="585" width="80" height="30" as="geometry" />
        </mxCell>
        <mxCell id="UveYAfGSZ513BkrasJNk-19" style="edgeStyle=orthogonalEdgeStyle;rounded=0;orthogonalLoop=1;jettySize=auto;html=1;entryX=0.5;entryY=0;entryDx=0;entryDy=0;" edge="1" parent="1" source="UveYAfGSZ513BkrasJNk-17" target="UveYAfGSZ513BkrasJNk-2">
          <mxGeometry relative="1" as="geometry" />
        </mxCell>
        <mxCell id="UveYAfGSZ513BkrasJNk-17" value="" style="ellipse;whiteSpace=wrap;html=1;aspect=fixed;" vertex="1" parent="1">
          <mxGeometry x="-450" y="160" width="40" height="40" as="geometry" />
        </mxCell>
        <mxCell id="UveYAfGSZ513BkrasJNk-18" value="acces&lt;br&gt;data" style="text;html=1;align=center;verticalAlign=middle;resizable=0;points=[];autosize=1;strokeColor=none;fillColor=none;" vertex="1" parent="1">
          <mxGeometry x="-510" y="160" width="50" height="40" as="geometry" />
        </mxCell>
      </root>
    </mxGraphModel>
  </diagram>
</mxfile>
